<?xml version="1.0" encoding="UTF-8"?><svg id="Layer_1" xmlns="http://www.w3.org/2000/svg" xmlns:xlink="http://www.w3.org/1999/xlink" viewBox="0 0 1600 300"><defs><style>.cls-1,.cls-2{fill:none;}.cls-3{clip-path:url(#clippath);}.cls-4{fill:#efd912;}.cls-2{stroke:#231f20;stroke-miterlimit:10;}</style><clipPath id="clippath"><path class="cls-1" d="M300.98,34.8c-5.1-5.9-11.55-10.55-19.35-13.95-7.8-3.4-17-5.1-27.6-5.1h-83.7V229.95h55.8v-81.6h19.5c23,0,40.45-5.55,52.35-16.65,11.9-11.1,17.85-27.75,17.85-49.95,0-9.4-1.2-18.1-3.6-26.1-2.4-8-6.15-14.95-11.25-20.85Zm-48.3,67.05c-3.7,4.2-9.05,6.3-16.05,6.3h-10.5V55.95h10.5c14.4,0,21.6,8.7,21.6,26.1,0,9-1.85,15.6-5.55,19.8Zm204.45,93V115.65c0-10.6-1.55-19.25-4.65-25.95-3.1-6.7-7.5-12-13.2-15.9-5.7-3.9-12.5-6.6-20.4-8.1-7.9-1.5-16.55-2.25-25.95-2.25-6.2,0-12.9,.65-20.1,1.95-7.2,1.3-13.9,3.9-20.1,7.8-6.2,3.9-11.4,9.4-15.6,16.5-4.2,7.1-6.3,16.55-6.3,28.35h46.8c.2-8.6,1.5-14.35,3.9-17.25,2.4-2.9,6.2-4.35,11.4-4.35,9.2,0,13.8,5,13.8,15,0,5-1.2,8.85-3.6,11.55-2.4,2.7-6.5,4.75-12.3,6.15l-21.3,5.1c-8.6,2-15.8,4.45-21.6,7.35-5.8,2.9-10.4,6.4-13.8,10.5-3.4,4.1-5.85,8.95-7.35,14.55-1.5,5.6-2.25,12.2-2.25,19.8,0,7,.8,13.4,2.4,19.2,1.6,5.8,4.2,10.8,7.8,15s8.25,7.35,13.95,9.45c5.7,2.1,12.65,3.15,20.85,3.15s15.85-1.8,22.35-5.4c6.5-3.6,11.25-9,14.25-16.2h.6c.4,3.4,.8,6.6,1.2,9.6,.4,3,1.1,5.9,2.1,8.7h52.2c-2.2-4.2-3.6-9.2-4.2-15-.6-5.8-.9-12.5-.9-20.1Zm-50.4-23.7c0,9-1.3,15.7-3.9,20.1-2.6,4.4-6.9,6.6-12.9,6.6-4,0-7.2-1.6-9.6-4.8-2.4-3.2-3.6-7.5-3.6-12.9s.8-9.75,2.4-13.05c1.6-3.3,4.5-5.95,8.7-7.95,4-1.8,7.65-2.95,10.95-3.45,3.3-.5,5.75-1.85,7.35-4.05h.6v19.5Zm191.55-16.35c3.9,6.3,5.85,14.65,5.85,25.05,0,8-1.5,15.3-4.5,21.9-3,6.6-7.25,12.3-12.75,17.1-5.5,4.8-12.3,8.4-20.4,10.8s-17.25,3.6-27.45,3.6c-22.6,0-38.85-4.5-48.75-13.5-9.9-9-14.85-22.4-14.85-40.2h47.4c0,3.2,.3,6.2,.9,9,.6,2.8,1.6,5.1,3,6.9,2.6,3.8,6.4,5.7,11.4,5.7,4.2,0,7.85-1.2,10.95-3.6,3.1-2.4,4.65-5.8,4.65-10.2,0-4.8-1.95-8.5-5.85-11.1-3.9-2.6-8.75-4.9-14.55-6.9-5.8-2-12.05-4.1-18.75-6.3-6.7-2.2-12.95-5.2-18.75-9-5.8-3.8-10.65-8.85-14.55-15.15-3.9-6.3-5.85-14.55-5.85-24.75,0-7.2,1.3-13.85,3.9-19.95,2.6-6.1,6.55-11.45,11.85-16.05,5.3-4.6,12-8.2,20.1-10.8,8.1-2.6,17.65-3.9,28.65-3.9,40.6,0,60.9,17,60.9,51h-46.8c0-7-1.25-11.75-3.75-14.25-2.5-2.5-6.05-3.75-10.65-3.75-4,0-7.3,1.1-9.9,3.3-2.6,2.2-3.9,5.3-3.9,9.3,0,4.6,1.95,8.05,5.85,10.35,3.9,2.3,8.75,4.35,14.55,6.15,5.8,1.8,12.05,3.7,18.75,5.7,6.7,2,12.95,4.85,18.75,8.55,5.8,3.7,10.65,8.7,14.55,15Zm138.9,0c3.9,6.3,5.85,14.65,5.85,25.05,0,8-1.5,15.3-4.5,21.9-3,6.6-7.25,12.3-12.75,17.1-5.5,4.8-12.3,8.4-20.4,10.8s-17.25,3.6-27.45,3.6c-22.6,0-38.85-4.5-48.75-13.5-9.9-9-14.85-22.4-14.85-40.2h47.4c0,3.2,.3,6.2,.9,9,.6,2.8,1.6,5.1,3,6.9,2.6,3.8,6.4,5.7,11.4,5.7,4.2,0,7.85-1.2,10.95-3.6,3.1-2.4,4.65-5.8,4.65-10.2,0-4.8-1.95-8.5-5.85-11.1-3.9-2.6-8.75-4.9-14.55-6.9-5.8-2-12.05-4.1-18.75-6.3-6.7-2.2-12.95-5.2-18.75-9-5.8-3.8-10.65-8.85-14.55-15.15-3.9-6.3-5.85-14.55-5.85-24.75,0-7.2,1.3-13.85,3.9-19.95,2.6-6.1,6.55-11.45,11.85-16.05,5.3-4.6,12-8.2,20.1-10.8,8.1-2.6,17.65-3.9,28.65-3.9,40.6,0,60.9,17,60.9,51h-46.8c0-7-1.25-11.75-3.75-14.25-2.5-2.5-6.05-3.75-10.65-3.75-4,0-7.3,1.1-9.9,3.3-2.6,2.2-3.9,5.3-3.9,9.3,0,4.6,1.95,8.05,5.85,10.35,3.9,2.3,8.75,4.35,14.55,6.15,5.8,1.8,12.05,3.7,18.75,5.7,6.7,2,12.95,4.85,18.75,8.55,5.8,3.7,10.65,8.7,14.55,15Zm147.75,40.05V115.65c0-10.6-1.55-19.25-4.65-25.95-3.1-6.7-7.5-12-13.2-15.9s-12.5-6.6-20.4-8.1c-7.9-1.5-16.55-2.25-25.95-2.25-6.2,0-12.9,.65-20.1,1.95-7.2,1.3-13.9,3.9-20.1,7.8-6.2,3.9-11.4,9.4-15.6,16.5-4.2,7.1-6.3,16.55-6.3,28.35h46.8c.2-8.6,1.5-14.35,3.9-17.25,2.4-2.9,6.2-4.35,11.4-4.35,9.2,0,13.8,5,13.8,15,0,5-1.2,8.85-3.6,11.55-2.4,2.7-6.5,4.75-12.3,6.15l-21.3,5.1c-8.6,2-15.8,4.45-21.6,7.35-5.8,2.9-10.4,6.4-13.8,10.5-3.4,4.1-5.85,8.95-7.35,14.55-1.5,5.6-2.25,12.2-2.25,19.8,0,7,.8,13.4,2.4,19.2,1.6,5.8,4.2,10.8,7.8,15s8.25,7.35,13.95,9.45c5.7,2.1,12.65,3.15,20.85,3.15s15.85-1.8,22.35-5.4c6.5-3.6,11.25-9,14.25-16.2h.6c.4,3.4,.8,6.6,1.2,9.6,.4,3,1.1,5.9,2.1,8.7h52.2c-2.2-4.2-3.6-9.2-4.2-15-.6-5.8-.9-12.5-.9-20.1Zm-50.4-23.7c0,9-1.3,15.7-3.9,20.1-2.6,4.4-6.9,6.6-12.9,6.6-4,0-7.2-1.6-9.6-4.8-2.4-3.2-3.6-7.5-3.6-12.9s.8-9.75,2.4-13.05c1.6-3.3,4.5-5.95,8.7-7.95,4-1.8,7.65-2.95,10.95-3.45,3.3-.5,5.75-1.85,7.35-4.05h.6v19.5Zm157.5-81h-.6c-3-9.8-7.8-16.7-14.4-20.7-6.6-4-13.7-6-21.3-6s-14.8,1.35-21,4.05c-6.2,2.7-11.45,7.2-15.75,13.5-4.3,6.3-7.6,14.7-9.9,25.2-2.3,10.5-3.45,23.55-3.45,39.15,0,16.8,1.45,30.45,4.35,40.95,2.9,10.5,6.65,18.65,11.25,24.45,4.6,5.8,9.7,9.7,15.3,11.7,5.6,2,11.1,3,16.5,3,7.4,0,14.5-1.7,21.3-5.1,6.8-3.4,11.9-9.8,15.3-19.2h.6v30c0,4.6-.5,8.2-1.5,10.8-1,2.6-2.25,4.6-3.75,6-1.5,1.4-3.25,2.3-5.25,2.7-2,.4-4,.6-6,.6-4.2,0-7.5-1.1-9.9-3.3-2.4-2.2-3.6-5.3-3.6-9.3h-48.6c.2,9.2,1.95,16.75,5.25,22.65,3.3,5.9,7.8,10.55,13.5,13.95,5.7,3.4,12.35,5.75,19.95,7.05,7.6,1.3,15.7,1.95,24.3,1.95,9.6,0,18.5-.95,26.7-2.85,8.2-1.9,15.35-5.05,21.45-9.45,6.1-4.4,10.9-10.3,14.4-17.7,3.5-7.4,5.25-16.4,5.25-27V67.65h-50.4v22.5Zm-2.7,75.15c-.6,5.3-1.55,9.45-2.85,12.45-1.3,3-2.9,5-4.8,6-1.9,1-4.05,1.5-6.45,1.5-2.6,0-4.85-.5-6.75-1.5-1.9-1-3.5-3-4.8-6-1.3-3-2.3-7.15-3-12.45-.7-5.3-1.05-12.25-1.05-20.85s.35-15.25,1.05-20.55c.7-5.3,1.7-9.45,3-12.45,1.3-3,2.9-5.05,4.8-6.15,1.9-1.1,4.15-1.65,6.75-1.65,2.4,0,4.55,.55,6.45,1.65,1.9,1.1,3.5,3.15,4.8,6.15,1.3,3,2.25,7.15,2.85,12.45,.6,5.3,.9,12.15,.9,20.55s-.3,15.55-.9,20.85Zm188.55-84.9c-5.5-6.1-12.3-10.45-20.4-13.05-8.1-2.6-17.55-3.9-28.35-3.9-12.2,0-22.65,1.55-31.35,4.65-8.7,3.1-15.85,8.05-21.45,14.85-5.6,6.8-9.7,15.6-12.3,26.4-2.6,10.8-3.9,24-3.9,39.6s1.15,28.5,3.45,39.3c2.3,10.8,6.15,19.55,11.55,26.25,5.4,6.7,12.5,11.5,21.3,14.4,8.8,2.9,19.7,4.35,32.7,4.35,22.4,0,38.5-5.05,48.3-15.15,9.8-10.1,14.9-25.15,15.3-45.15h-48.6c0,11-1.35,18.45-4.05,22.35-2.7,3.9-6.45,5.85-11.25,5.85-3.8,0-7.2-1.45-10.2-4.35-3-2.9-4.5-8.75-4.5-17.55v-21.3h80.1v-16.5c0-14.8-1.35-27.15-4.05-37.05-2.7-9.9-6.8-17.9-12.3-24Zm-34.05,48.15h-29.7v-7.2c0-8.6,1.05-14.9,3.15-18.9,2.1-4,5.95-6,11.55-6s9.75,2,11.85,6c2.1,4,3.15,10.3,3.15,18.9v7.2Zm188.4,51.3c0,8-1.5,15.3-4.5,21.9-3,6.6-7.25,12.3-12.75,17.1-5.5,4.8-12.3,8.4-20.4,10.8-8.1,2.4-17.25,3.6-27.45,3.6-22.6,0-38.85-4.5-48.75-13.5-9.9-9-14.85-22.4-14.85-40.2h47.4c0,3.2,.3,6.2,.9,9,.6,2.8,1.6,5.1,3,6.9,2.6,3.8,6.4,5.7,11.4,5.7,4.2,0,7.85-1.2,10.95-3.6,3.1-2.4,4.65-5.8,4.65-10.2,0-4.8-1.95-8.5-5.85-11.1-3.9-2.6-8.75-4.9-14.55-6.9-5.8-2-12.05-4.1-18.75-6.3-6.7-2.2-12.95-5.2-18.75-9-5.8-3.8-10.65-8.85-14.55-15.15-3.9-6.3-5.85-14.55-5.85-24.75,0-7.2,1.3-13.85,3.9-19.95,2.6-6.1,6.55-11.45,11.85-16.05,5.3-4.6,12-8.2,20.1-10.8,8.1-2.6,17.65-3.9,28.65-3.9,40.6,0,60.9,17,60.9,51h-46.8c0-7-1.25-11.75-3.75-14.25-2.5-2.5-6.05-3.75-10.65-3.75-4,0-7.3,1.1-9.9,3.3-2.6,2.2-3.9,5.3-3.9,9.3,0,4.6,1.95,8.05,5.85,10.35,3.9,2.3,8.75,4.35,14.55,6.15,5.8,1.8,12.05,3.7,18.75,5.7,6.7,2,12.95,4.85,18.75,8.55,5.8,3.7,10.65,8.7,14.55,15,3.9,6.3,5.85,14.65,5.85,25.05Z"/></clipPath></defs><rect class="cls-4" width="1600" height="300"/><g class="cls-3"><g><line class="cls-2" x1="1692.7" y1="1.82" x2="21.64" y2="1.82"/><line class="cls-2" x1="1692.7" y1="6.43" x2="21.64" y2="6.43"/><line class="cls-2" x1="1692.7" y1="11.04" x2="21.64" y2="11.04"/><line class="cls-2" x1="1692.7" y1="15.65" x2="21.64" y2="15.65"/><line class="cls-2" x1="1692.7" y1="20.27" x2="21.64" y2="20.27"/><line class="cls-2" x1="1692.7" y1="24.88" x2="21.64" y2="24.88"/><line class="cls-2" x1="1692.7" y1="29.49" x2="21.64" y2="29.49"/><line class="cls-2" x1="1692.7" y1="34.1" x2="21.64" y2="34.1"/><line class="cls-2" x1="1692.7" y1="38.71" x2="21.64" y2="38.71"/><line class="cls-2" x1="1692.7" y1="43.32" x2="21.64" y2="43.32"/><line class="cls-2" x1="1692.7" y1="47.94" x2="21.64" y2="47.94"/><line class="cls-2" x1="1692.7" y1="52.55" x2="21.64" y2="52.55"/><line class="cls-2" x1="1692.7" y1="57.16" x2="21.64" y2="57.16"/><line class="cls-2" x1="1692.7" y1="61.77" x2="21.64" y2="61.77"/><line class="cls-2" x1="1692.7" y1="66.38" x2="21.64" y2="66.38"/><line class="cls-2" x1="1692.7" y1="71" x2="21.64" y2="71"/><line class="cls-2" x1="1692.7" y1="75.61" x2="21.64" y2="75.61"/><line class="cls-2" x1="1692.7" y1="80.22" x2="21.64" y2="80.22"/><line class="cls-2" x1="1692.7" y1="84.83" x2="21.64" y2="84.83"/><line class="cls-2" x1="1692.7" y1="89.44" x2="21.64" y2="89.44"/><line class="cls-2" x1="1692.7" y1="94.05" x2="21.64" y2="94.05"/><line class="cls-2" x1="1692.7" y1="98.67" x2="21.64" y2="98.67"/><line class="cls-2" x1="1692.7" y1="103.28" x2="21.64" y2="103.28"/><line class="cls-2" x1="1692.7" y1="107.89" x2="21.64" y2="107.89"/><line class="cls-2" x1="1692.7" y1="112.5" x2="21.64" y2="112.5"/><line class="cls-2" x1="1692.7" y1="117.11" x2="21.64" y2="117.11"/><line class="cls-2" x1="1692.7" y1="121.73" x2="21.64" y2="121.73"/><line class="cls-2" x1="1692.7" y1="126.34" x2="21.64" y2="126.34"/><line class="cls-2" x1="1692.7" y1="130.95" x2="21.64" y2="130.95"/><line class="cls-2" x1="1692.7" y1="135.56" x2="21.64" y2="135.56"/><line class="cls-2" x1="1692.7" y1="140.17" x2="21.64" y2="140.17"/><line class="cls-2" x1="1692.7" y1="144.78" x2="21.64" y2="144.78"/><line class="cls-2" x1="1692.7" y1="149.4" x2="21.64" y2="149.4"/><line class="cls-2" x1="1692.7" y1="154.01" x2="21.64" y2="154.01"/><line class="cls-2" x1="1692.7" y1="158.62" x2="21.64" y2="158.62"/><line class="cls-2" x1="1692.7" y1="163.23" x2="21.64" y2="163.23"/><line class="cls-2" x1="1692.7" y1="167.84" x2="21.64" y2="167.84"/><line class="cls-2" x1="1692.7" y1="172.46" x2="21.64" y2="172.46"/><line class="cls-2" x1="1692.7" y1="177.07" x2="21.64" y2="177.07"/><line class="cls-2" x1="1692.7" y1="181.68" x2="21.64" y2="181.68"/><line class="cls-2" x1="1692.7" y1="186.29" x2="21.64" y2="186.29"/><line class="cls-2" x1="1692.7" y1="190.9" x2="21.64" y2="190.9"/><line class="cls-2" x1="1692.7" y1="195.51" x2="21.64" y2="195.51"/><line class="cls-2" x1="1692.7" y1="200.13" x2="21.64" y2="200.13"/><line class="cls-2" x1="1692.7" y1="204.74" x2="21.64" y2="204.74"/><line class="cls-2" x1="1692.7" y1="209.35" x2="21.64" y2="209.35"/><line class="cls-2" x1="1692.7" y1="213.96" x2="21.64" y2="213.96"/><line class="cls-2" x1="1692.7" y1="218.57" x2="21.64" y2="218.57"/><line class="cls-2" x1="1692.7" y1="223.19" x2="21.64" y2="223.19"/><line class="cls-2" x1="1692.7" y1="227.8" x2="21.64" y2="227.8"/><line class="cls-2" x1="1692.7" y1="232.41" x2="21.64" y2="232.41"/><line class="cls-2" x1="1692.7" y1="237.02" x2="21.64" y2="237.02"/><line class="cls-2" x1="1692.7" y1="241.63" x2="21.64" y2="241.63"/><line class="cls-2" x1="1692.7" y1="246.24" x2="21.64" y2="246.24"/><line class="cls-2" x1="1692.7" y1="250.86" x2="21.64" y2="250.86"/><line class="cls-2" x1="1692.7" y1="255.47" x2="21.64" y2="255.47"/><line class="cls-2" x1="1692.7" y1="260.08" x2="21.64" y2="260.08"/><line class="cls-2" x1="1692.7" y1="264.69" x2="21.64" y2="264.69"/><line class="cls-2" x1="1692.7" y1="269.3" x2="21.64" y2="269.3"/><line class="cls-2" x1="1692.7" y1="273.92" x2="21.64" y2="273.92"/><line class="cls-2" x1="1692.7" y1="278.53" x2="21.64" y2="278.53"/><line class="cls-2" x1="1692.7" y1="283.14" x2="21.64" y2="283.14"/><line class="cls-2" x1="1692.7" y1="287.75" x2="21.64" y2="287.75"/><line class="cls-2" x1="1692.7" y1="292.36" x2="21.64" y2="292.36"/><line class="cls-2" x1="1692.7" y1="296.97" x2="21.64" y2="296.97"/></g></g></svg>